<svg xmlns="http://www.w3.org/2000/svg" width="28.6" height="35.1" viewBox="0 2 22 27" fill="none">
  <path d="M13.647 5.61818C14.8759 5.61818 15.4904 5.61818 15.9318 5.98022C16.1228 6.13695 16.2869 6.33835 16.4146 6.57292C16.7095 7.11476 16.7095 7.86904 16.7095 9.37759V19.5817C16.7095 21.6071 16.7095 22.6198 16.1969 23.249C15.6844 23.8782 14.8594 23.8782 13.2095 23.8782H7.9595C6.30959 23.8782 5.48463 23.8782 4.97207 23.249C4.4595 22.6198 4.4595 21.6071 4.4595 19.5817V9.37759C4.4595 7.86904 4.4595 7.11476 4.75443 6.57292C4.88211 6.33835 5.04617 6.13695 5.23726 5.98022C5.67865 5.61818 6.2931 5.61818 7.522 5.61818" stroke="#A8DF8D" stroke-width="2"/>
  <path d="M7.9595 5.61818C7.9595 4.43175 8.743 3.46995 9.7095 3.46995H11.4595C12.426 3.46995 13.2095 4.43175 13.2095 5.61818C13.2095 6.80462 12.426 7.76642 11.4595 7.76642H9.7095C8.743 7.76642 7.9595 6.80462 7.9595 5.61818Z" stroke="#A8DF8D" stroke-width="2"/>
  <path d="M7.9595 13.137L13.2095 13.137" stroke="#A8DF8D" stroke-width="2" stroke-linecap="round"/>
  <path d="M7.9595 17.4335L11.4595 17.4335" stroke="#A8DF8D" stroke-width="2" stroke-linecap="round"/>
</svg>