<svg xmlns="http://www.w3.org/2000/svg" width="25.2" height="33.8" viewBox="0 2 21 26" fill="none">
  <path d="M1.75 13.0435L0.912201 12.4975L0.556396 13.0435L0.912201 13.5895L1.75 13.0435ZM9.625 14.0435C10.1773 14.0435 10.625 13.5958 10.625 13.0435C10.625 12.4912 10.1773 12.0435 9.625 12.0435V14.0435ZM4.4122 7.12681L0.912201 12.4975L2.5878 13.5895L6.0878 8.21877L4.4122 7.12681ZM0.912201 13.5895L4.4122 18.9602L6.0878 17.8682L2.5878 12.4975L0.912201 13.5895ZM1.75 14.0435H9.625V12.0435H1.75V14.0435Z" fill="#A8DF8D"/>
  <path d="M8.75 8.88866V7.71485C8.75 6.15167 8.75 5.37008 9.20052 4.81805C9.65104 4.26603 10.4269 4.10728 11.9787 3.78979V3.78979C15.3553 3.09893 17.0437 2.7535 18.1468 3.65381C19.25 4.55412 19.25 6.25408 19.25 9.65398V16.4331C19.25 19.833 19.25 21.5329 18.1468 22.4332C17.0437 23.3335 15.3553 22.9881 11.9787 22.2972V22.2972C10.4269 21.9798 9.65104 21.821 9.20052 21.269C8.75 20.717 8.75 19.9354 8.75 18.3722V17.4109" stroke="#A8DF8D" stroke-width="2"/>
</svg>